<svg width="50" height="50" viewBox="0 0 50 50" fill="none" xmlns="http://www.w3.org/2000/svg">
<rect width="50" height="50" rx="15" fill="#3D3B94"/>
<path fill-rule="evenodd" clip-rule="evenodd" d="M30.435 17.3896C28.9958 16.5111 27.306 16.0044 25.5 16.0044C23.5591 16.0044 21.7526 16.5899 20.247 17.5929L22.1394 23.4167L30.435 17.3896ZM31.4002 18.0643L26.4482 21.6622L34.7457 27.6908C34.9117 26.9885 35 26.2566 35 25.5044C35 22.4938 33.592 19.8061 31.4002 18.0643ZM16 25.5044C16 22.6295 17.2838 20.0491 19.308 18.3055L22.4761 28.0553H16.3483C16.1216 27.2432 16 26.3878 16 25.5044ZM16.7354 29.1686C18.1233 32.4761 21.3308 34.8379 25.0986 34.9953L26.9918 29.1686H16.7354ZM34.4033 28.8181C33.1422 32.1956 30.0115 34.6689 26.2765 34.9725L29.4464 25.2166L34.4033 28.8181Z" fill="white"/>
</svg>
